<?xml version="1.0" encoding="UTF-8"?>
<svg id="Capa_1" data-name="Capa 1" xmlns="http://www.w3.org/2000/svg" xmlns:xlink="http://www.w3.org/1999/xlink" viewBox="0 0 81.42 33.49">
  <defs>
    <style>
      .cls-1 {
        fill: none;
      }

      .cls-2 {
        fill: #0d0c35;
      }

      .cls-3 {
        clip-path: url(#clippath);
      }
    </style>
    <clipPath id="clippath">
      <polygon class="cls-1" points="0 0 79.33 1.46 81.42 32.78 1.03 33.49 0 0"/>
    </clipPath>
  </defs>
  <g class="cls-3">
    <path class="cls-2" d="M38.37,19.67c0,2.58-2.02,4.08-5.89,4.08h-7.48v-15.05h7.05c3.61,0,5.55,1.53,5.55,3.91,0,1.55-.77,2.69-1.93,3.31,1.61.52,2.71,1.78,2.71,3.74M27.79,10.9v4.15h3.96c1.93,0,3.03-.69,3.03-2.06s-1.1-2.08-3.03-2.08h-3.96ZM35.55,19.39c0-1.5-1.14-2.17-3.25-2.17h-4.51v4.34h4.51c2.11,0,3.25-.67,3.25-2.17"/>
    <polygon class="cls-2" points="58.35 8.7 58.35 23.75 56.05 23.75 47.75 13.56 47.75 23.75 44.98 23.75 44.98 8.7 47.28 8.7 55.58 18.89 55.58 8.7 58.35 8.7"/>
    <path class="cls-2" d="M72.77,8.14h.31c0-.11.01-.2.03-.26.01-.05.03-.08.04-.1.02-.03.04-.05.08-.07.04-.02.12-.04.23-.04,1.06,0,2.12,0,3.17.01.09,0,.16.01.21.03.07.03.1.05.13.09.03.04.06.13.06.27,0,1.68.05,3.36.05,5.04h.25s-.25,0-.25,0h0s.25,0,.25,0h-.25s0,0,0,0c0,.14,0,.24-.02.29-.01.04-.02.07-.04.1-.03.05-.1.12-.22.22-.12.1-.29.24-.52.43h0s0,0,0,0c-.41.37-.7.64-.91.81-.11.08-.19.14-.26.17-.07.03-.1.04-.13.04-.03,0-.06,0-.12-.04-.09-.04-.22-.15-.39-.31-.17-.17-.39-.39-.66-.67h0s0,0,0,0c-.33-.33-.53-.5-.61-.61-.04-.05-.05-.09-.07-.15-.02-.06-.02-.15-.02-.3,0-.24,0-4.1,0-4.98h-.31s-.31,0-.31,0c0,.88,0,4.74,0,4.98,0,.17,0,.31.04.44.02.1.07.2.12.28.08.13.18.23.29.34.12.11.26.24.43.42h0c.36.36.62.64.86.85.12.1.23.19.35.25.12.06.26.1.4.1.14,0,.28-.04.4-.1.19-.09.36-.22.57-.4.21-.18.45-.4.75-.67l-.21-.23.2.23c.19-.16.35-.29.47-.39.1-.08.18-.15.25-.23.11-.11.2-.25.25-.4.05-.15.06-.31.06-.5h-.25.25s0,0,0,0h-.25.25s0,0,0,0c0-1.68-.04-3.37-.05-5.04,0-.15-.02-.28-.06-.41-.06-.19-.2-.36-.37-.46-.17-.1-.37-.14-.57-.14-1.06-.01-2.12-.01-3.18-.01-.16,0-.3.02-.43.07-.1.04-.19.09-.27.16-.12.11-.19.25-.24.39-.04.14-.06.3-.06.46h.31Z"/>
    <path class="cls-2" d="M70.48,20.29h-.31c0,.47,0,.95,0,1.42,0,.32,0,.63.01.95v.06c0,.1,0,.18-.02.24-.01.04-.02.07-.04.09-.02.03-.03.04-.08.06-.04.02-.12.04-.24.04h-.04c-.5-.01-.99-.02-1.49-.02-.54,0-1.08,0-1.62.02h0-.03c-.1,0-.17-.01-.22-.03-.03-.01-.05-.02-.07-.03-.02-.02-.03-.04-.05-.09-.02-.05-.03-.14-.03-.25v-.02s0,0,0,0h0c0-.72,0-1.43,0-2.15s0-1.46,0-2.18c0-.13,0-.26,0-.4,0-.08,0-.16,0-.22,0-.04.01-.08.02-.1.01-.03.02-.04.03-.05.01-.01.05-.04.15-.05.11-.02.21-.05.3-.11.13-.08.23-.21.27-.33.05-.12.06-.24.06-.34,0-.14-.02-.26-.02-.34,0-.04,0-.08,0-.12,0-.1.01-.17.03-.22.03-.07.05-.09.09-.12.04-.03.13-.05.27-.05.04,0,.09,0,.15,0,.15.01.3.02.45.02.14,0,.28,0,.43-.02.12-.01.23-.02.32-.02.12,0,.22.01.3.03.06.01.11.03.14.05.05.03.08.06.11.12.03.06.05.14.05.28,0,.08,0,.17-.03.28,0,.05-.01.11-.01.17,0,.1.01.21.06.32.02.06.06.12.12.18.06.06.14.1.23.12.12.02.2.05.25.08.08.05.1.08.13.14.02.06.04.15.04.27,0,.15-.02.33-.02.52,0,.03,0,.06,0,.1,0,.21.01.43.01.65,0,.34,0,.69,0,1.05h.31s.31,0,.31,0c0-.34,0-.69,0-1.05,0-.22,0-.45-.01-.68,0-.02,0-.04,0-.07,0-.15.02-.33.02-.52,0-.1,0-.21-.03-.33-.03-.17-.12-.35-.28-.5-.16-.14-.36-.23-.62-.28l-.03.16.11-.11s-.05-.04-.08-.04l-.03.16.11-.11-.07.07.09-.05-.02-.03-.07.07.09-.05h-.02s.02,0,.02,0h0s-.02,0-.02,0h.02s-.01-.05-.01-.09c0-.02,0-.05,0-.07.02-.14.04-.27.04-.39,0-.18-.03-.35-.09-.5-.05-.11-.12-.21-.2-.29-.13-.12-.28-.2-.44-.24-.16-.04-.32-.06-.49-.06-.13,0-.26,0-.39.02-.12.01-.24.02-.36.02-.13,0-.26,0-.39-.02-.07,0-.14-.01-.2-.01-.14,0-.27.01-.39.05-.19.06-.36.18-.46.35-.11.17-.14.38-.14.59,0,.05,0,.11,0,.17,0,.11.02.21.02.29,0,.08-.02.13-.02.14h-.01s-.03.03-.08.04c-.15.03-.28.07-.39.15-.08.06-.15.13-.2.21-.07.12-.1.24-.11.35-.01.11-.01.21-.01.31,0,.13,0,.26,0,.4,0,.73,0,1.46,0,2.18s0,1.43,0,2.14h0s0,.03,0,.03c0,.14.01.27.05.4.03.09.06.19.12.27.09.12.21.22.35.28.14.06.29.07.46.08h.04s0,0,0,0c.54-.01,1.07-.02,1.61-.02.49,0,.98,0,1.47.02.02,0,.04,0,.06,0,.16,0,.3-.02.43-.06.1-.03.19-.09.27-.15.12-.1.2-.24.24-.38.04-.14.06-.28.06-.44,0-.02,0-.05,0-.07,0-.31-.01-.62-.01-.93,0-.47,0-.95,0-1.42h-.31Z"/>
    <path class="cls-2" d="M72.81,20.2h.31c0-.46,0-.93,0-1.39,0-.38,0-.75,0-1.13h0s0,0,0,0h0c0-.12-.01-.2-.01-.26,0-.02,0-.04,0-.06v-.02s0,0,0,0l-.04-.02.03.03h0s-.04-.03-.04-.03l.03.03-.03-.03.02.03h0s-.03-.03-.03-.03l.02.03h0s0,0,0,0h0s0,0,0,0h0s0,0,0,0h.02s0-.01,0-.01h0s0,0,0,0h0s0,0,0,0v-.03s0,.03,0,.03h0s0-.03,0-.03v.03-.04.04s0,0,0,0v-.04.04s0-.02,0-.02v.02s0,0,0,0v-.02s0,.02,0,.02h.02s.05.06.09.11c.04.04.08.1.14.15.36.33.54.5,1.02,1.01.11.11.21.21.32.28.11.07.25.12.39.12.15,0,.29-.06.4-.13.11-.08.21-.17.3-.28.32-.37.7-.71,1.07-1.08.07-.07.12-.13.16-.15l.03-.02h0s0,0,0,0h0s0,0,0,0h0s0-.03,0-.03v.03h0s0-.03,0-.03v.03-.02.02s0,0,0,0v-.02.02s0,0,0,0h0s.01-.03.01-.03l-.02.03h0s.01-.03.01-.03l-.02.03.04-.07-.06.04.02.02.04-.07-.06.04.04-.03-.04.02h0s.04-.02.04-.02l-.04.02v.02s0,.04,0,.07c0,.03,0,.08,0,.13h0s.31,0,.31,0h-.31c0,.52,0,1.05,0,1.57,0,.58,0,1.17,0,1.75,0,.66,0,1.31,0,1.97h0c0,.09-.01.15-.02.19,0,.03-.02.04-.03.05-.01.01-.03.03-.07.04-.04.01-.11.03-.21.03h-.01s0,0,0,0c-.56,0-1.11,0-1.67,0s-1.06,0-1.59,0h-.01c-.09,0-.15-.01-.18-.02-.03,0-.04-.02-.05-.03-.01-.01-.03-.02-.04-.06-.01-.04-.03-.11-.03-.2v-.02s0,0,0,0c0-.36,0-.71,0-1.07,0-.51,0-1.03,0-1.54h-.31s-.31,0-.31,0c0,.51,0,1.03,0,1.54,0,.35,0,.71,0,1.06h0s0,.02,0,.02c0,.13.01.25.05.36.05.17.16.34.33.44.16.1.35.13.54.13h.02c.53,0,1.06,0,1.59,0s1.11,0,1.66,0h0,0,.02c.13,0,.24-.01.36-.04.09-.02.17-.06.25-.12.12-.08.21-.2.26-.33.05-.13.07-.27.07-.43h0c0-.66,0-1.32,0-1.97,0-.58,0-1.17,0-1.75,0-.52,0-1.05,0-1.57h0s0,0,0,0h-.02s.02,0,.02,0h0s-.02,0-.02,0h.02s0-.07,0-.13c0-.09,0-.2-.06-.34-.03-.07-.08-.14-.14-.19-.06-.06-.14-.1-.23-.12-.05-.02-.11-.02-.16-.02-.09,0-.17.02-.24.05-.1.05-.18.11-.23.16-.06.05-.1.1-.14.14-.36.35-.76.71-1.11,1.11-.08.09-.14.15-.18.18-.04.03-.05.03-.05.03,0,0-.02,0-.06-.03-.05-.03-.11-.09-.2-.18-.48-.52-.7-.72-1.06-1.04-.04-.03-.11-.12-.2-.21-.05-.05-.11-.09-.18-.13-.08-.04-.17-.07-.28-.07-.1,0-.2.03-.28.07-.13.06-.23.18-.28.3-.05.12-.05.22-.05.31,0,.11.01.2.01.25h0s0,0,0,0c0,.38,0,.76,0,1.14,0,.46,0,.93,0,1.39h.31Z"/>
    <path class="cls-2" d="M70.48,13.23h-.31c0,.07,0,.14-.01.19,0,.04-.01.06-.02.08-.01.02,0,.02-.01.02,0,0-.03.02-.11.02h-.01s.01.31.01.31v-.31c-.06,0-.09,0-.11-.02-.02-.01-.02,0-.03-.02,0-.02-.02-.06-.02-.12,0-.03,0-.07,0-.11.02-.11.02-.21.02-.31,0-.16-.02-.32-.07-.45-.07-.21-.23-.38-.42-.48-.19-.1-.39-.13-.61-.13-.11,0-.23,0-.35.03-.1.01-.21.02-.32.02-.11,0-.23,0-.34-.02-.08,0-.15-.01-.23-.01-.14,0-.26.02-.39.05-.18.06-.35.18-.45.36-.1.17-.13.37-.14.58,0,.06,0,.11,0,.17,0,.11.02.21.02.28,0,.05,0,.08,0,.11v.03s-.02.01-.02.01c-.01,0-.05.02-.13.02h-.02c-.07,0-.11-.01-.12-.02h0s0,0,0,0h0s0,0,0,0h0s0,0,0,0h0s-.02-.1-.02-.21c0-.06,0-.14,0-.21h0c0-.36,0-.7,0-1.05,0-.63,0-1.26,0-1.88s0-1.32-.01-1.98v-.03c0-.12.01-.21.03-.27.01-.05.03-.08.04-.1.02-.03.04-.05.09-.07.05-.02.14-.04.27-.04h.06s.02,0,.02,0h-.02c.48.02.97.02,1.45.02.53,0,1.06,0,1.58-.02h.03c.1,0,.17.01.22.02.04.01.06.02.07.03.02.02.03.03.05.08.02.04.03.12.03.23v.04c-.01.37-.01,1.19-.01,2.09,0,1.04,0,2.17,0,2.79,0,.1,0,.19,0,.26h.31s.31,0,.31,0c0-.07,0-.16,0-.27,0-.62,0-1.75,0-2.79,0-.9,0-1.73.01-2.08v-.06c0-.14-.01-.27-.05-.4-.03-.09-.07-.18-.14-.26-.09-.12-.22-.2-.36-.25-.14-.05-.28-.06-.44-.07h-.04c-.52.01-1.05.02-1.57.02-.48,0-.96,0-1.43-.02h0s-.05,0-.08,0c-.16,0-.3.02-.44.06-.1.03-.2.08-.28.15-.13.1-.21.25-.26.39-.05.15-.06.31-.06.48v.04c.01.66.01,1.31.01,1.97s0,1.26,0,1.88c0,.35,0,.69,0,1.04h0s0,.01,0,.01c0,.06,0,.13,0,.21,0,.08,0,.16.02.25.01.07.03.14.06.21.05.11.14.22.27.29.12.07.26.09.41.09h.04c.13,0,.24-.02.35-.07.08-.03.15-.08.21-.14.09-.09.14-.2.17-.29.03-.1.03-.19.03-.28,0-.13-.02-.25-.02-.33,0-.04,0-.09,0-.12,0-.1.01-.17.03-.22.03-.07.05-.09.08-.12.04-.02.12-.05.25-.05.05,0,.1,0,.16,0,.13.01.27.02.41.02.13,0,.26,0,.4-.02.1-.01.19-.02.28-.02.1,0,.19.01.25.03.09.03.13.06.17.11.03.05.07.14.07.31,0,.07,0,.14-.02.23,0,.06-.01.12-.01.19,0,.08,0,.17.03.26.04.13.12.28.25.37.14.1.3.14.48.14h.01s0-.26,0-.26v.26s0,0,0,0v-.26s0,.26,0,.26v-.16s0,.16,0,.16h0v-.16s0,.16,0,.16h0c.14,0,.27-.02.39-.08.09-.04.16-.11.22-.18.08-.11.12-.23.14-.34.02-.11.02-.21.02-.31h-.31Z"/>
    <path class="cls-2" d="M13.95,20.27h-7.52l-1.48,3.48h-2.88l6.77-15.05h2.75l6.79,15.05h-2.92l-1.5-3.48ZM13.03,18.08l-2.84-6.58-2.82,6.58h5.65Z"/>
  </g>
</svg>