<svg width="320" height="320" viewBox="0 0 320 320" fill="none" xmlns="http://www.w3.org/2000/svg">
<circle cx="160" cy="160" r="160" fill="#2B6FF9"/>
<path d="M240.854 97.5232C225.617 85.1744 204.549 79 177.634 79H77.7298C71.4374 79 66.3474 84.1425 66.3474 90.5C66.3474 96.8574 71.4374 102 77.7298 102H132.417C138.71 102 143.8 107.143 143.8 113.5C143.8 119.857 138.71 125 132.417 125H104.695C98.4024 125 93.3124 130.143 93.3124 136.5C93.3124 142.857 98.4024 148 104.695 148H131.446C137.738 148 142.828 153.143 142.828 159.5C142.828 165.857 137.738 171 131.446 171H86.773C80.4806 171 75.3906 176.143 75.3906 182.5C75.3906 188.857 80.4806 194 86.773 194H121.068C127.36 194 132.45 199.142 132.45 205.5C132.45 211.857 127.36 217 121.068 217H63.3823C57.09 217 52 222.142 52 228.5C52 234.857 57.09 240 63.3823 240C63.3823 240 183.465 239.95 185.063 239.95C209.425 239.95 229.323 232.294 244.807 216.983C260.275 201.656 268 181.901 268 157.686C268 133.471 258.94 112.335 240.854 97.573V97.5232ZM178.556 192.452H171.292V124.95H179.248C206.246 124.95 219.737 135.851 219.737 157.653C219.737 180.852 206.015 192.452 178.556 192.452Z" fill="white"/>
<path d="M68 148C74.6274 148 80 142.851 80 136.5C80 130.149 74.6274 125 68 125C61.3726 125 56 130.149 56 136.5C56 142.851 61.3726 148 68 148Z" fill="white"/>
</svg>
